<?xml version="1.0" encoding="utf-8"?>
<!-- Generator: Adobe Illustrator 23.0.2, SVG Export Plug-In . SVG Version: 6.00 Build 0)  -->
<svg version="1.1" id="Layer_1" xmlns="http://www.w3.org/2000/svg" xmlns:xlink="http://www.w3.org/1999/xlink" x="0px" y="0px"
	 viewBox="0 0 533.5 80" style="enable-background:new 0 0 533.5 80;" xml:space="preserve">
<style type="text/css">
	.st0{fill:#373737;}
	.st1{fill:#808080;}
	.st2{fill:#47C431;}
	.st3{fill:#FFFFFF;}
</style>
<g>
	<g>
		<g>
			<path class="st0" d="M171.6,39.3v24.3h-8.3V9.3h12.3c3.6,0,6.4,0.2,8.4,0.7s3.7,1.3,5.1,2.3c1.7,1.3,3,3,3.9,5.1
				c0.9,2.1,1.4,4.4,1.4,6.8c0,4.4-1.1,7.8-3.2,10.2c-2.1,2.5-5.2,3.9-9.3,4.4l18.7,24.7h-10l-18.1-24.3L171.6,39.3L171.6,39.3z
				 M172.2,32.5h1.6c4.7,0,7.8-0.5,9.3-1.6c1.5-1.1,2.3-3,2.3-5.8c0-3-0.8-5.1-2.5-6.3c-1.6-1.2-4.7-1.8-9.1-1.8h-1.6L172.2,32.5
				L172.2,32.5z"/>
		</g>
		<g>
			<path class="st0" d="M203.3,18.3c0-1.4,0.5-2.5,1.5-3.5s2.2-1.5,3.6-1.5c1.4,0,2.6,0.5,3.6,1.4c0.9,0.9,1.4,2.1,1.4,3.6
				s-0.5,2.6-1.4,3.6c-1,1-2.1,1.5-3.6,1.5c-1.4,0-2.6-0.5-3.6-1.5C203.8,20.9,203.3,19.6,203.3,18.3z M204.4,63.6V28.4h8.1v35.2
				H204.4z"/>
		</g>
		<g>
			<path class="st0" d="M234,73.6c3.4,0,5.9-0.8,7.4-2.3c1.5-1.5,2.3-4,2.3-7.6l0.1-4.7c-1.4,2-3.1,3.5-5,4.5s-4.1,1.5-6.6,1.5
				c-5,0-8.9-1.7-11.8-5.1c-2.9-3.4-4.3-8.1-4.3-14c0-5.6,1.5-10.2,4.4-13.6s6.7-5.2,11.4-5.2c2.9,0,5.3,0.6,7.4,1.8
				c2,1.2,3.5,2.9,4.5,5.2v-5.8h8.1v33c0,6.9-1.4,11.7-4.1,14.5c-2.8,2.8-7.4,4.2-13.9,4.2L234,73.6z M244,45.9
				c0-3.6-0.9-6.5-2.5-8.5c-1.7-2-4.1-3-7.1-3s-5.4,1-7.2,3.1s-2.6,5-2.6,8.7c0,3.7,0.8,6.6,2.5,8.7c1.7,2,4.1,3,7.1,3
				c2.9,0,5.3-1.1,7.1-3.3S244,49.5,244,45.9z"/>
		</g>
		<g>
			<path class="st0" d="M256.1,63.6V9.3h7.6v24.9c1.6-2.4,3.5-4.2,5.7-5.3c2.2-1.1,4.8-1.7,8-1.7c2.6,0,4.9,0.4,6.7,1.2
				c1.8,0.8,3.3,2.1,4.3,3.7c0.6,1,1.1,2.1,1.3,3.4s0.4,3.5,0.4,6.8v21.3H282V45.6c0-4.6-0.6-7.7-1.7-9.2c-1.1-1.5-3.1-2.3-6-2.3
				c-1.9,0-3.6,0.3-5,1c-1.5,0.7-2.6,1.7-3.5,2.9c-0.6,0.8-1,1.9-1.2,3.3c-0.2,1.3-0.4,3.4-0.4,6.3v16
				C264.2,63.6,256.1,63.6,256.1,63.6z"/>
		</g>
		<g>
			<path class="st0" d="M298.9,63.6V35.5h-6.2v-7.1h6.2V15.1h8.1v13.3h6.2v7.1H307v28.2L298.9,63.6L298.9,63.6z"/>
		</g>
		<g>
			<path class="st1" d="M318.4,52.1l7.1-3.3c0.7,2.4,1.9,4.3,3.7,5.6s4.1,1.9,6.9,1.9c2.6,0,4.7-0.7,6.3-2.2
				c1.5-1.5,2.3-3.4,2.3-5.9c0-3.2-2.7-6.1-8-8.6c-0.7-0.4-1.3-0.7-1.7-0.8c-6-2.9-10-5.6-12-8s-3-5.3-3-8.7c0-4.5,1.5-8.1,4.5-10.8
				c3-2.8,7-4.1,11.9-4.1c4,0,7.4,0.8,10.1,2.3s4.6,3.8,5.6,6.7l-6.9,3.6c-1.1-1.7-2.3-3-3.6-3.8c-1.3-0.8-2.8-1.2-4.5-1.2
				c-2.4,0-4.3,0.6-5.7,1.9s-2.1,2.9-2.1,5c0,3.3,3.1,6.3,9.2,9.2c0.5,0.2,0.8,0.4,1.1,0.5c5.4,2.5,9.1,4.9,11.1,7.3s3,5.3,3,8.9
				c0,5.2-1.6,9.3-4.9,12.3s-7.6,4.6-13.2,4.6c-4.6,0-8.5-1.1-11.4-3.2C321.2,59.2,319.3,56.1,318.4,52.1z"/>
			<path class="st1" d="M366.7,27.7v19.9c0,3.4,0.7,5.9,2.1,7.4c1.4,1.5,3.7,2.2,6.9,2.2c3.2,0,5.5-0.8,6.9-2.2
				c1.4-1.5,2.1-4,2.1-7.4V27.7h8.1v17.5c0,6.8-1.4,11.7-4.1,14.7s-7,4.6-13,4.6c-6,0-10.4-1.5-13.1-4.5c-2.7-3-4.1-8-4.1-14.8V27.7
				H366.7z"/>
			<path class="st1" d="M408,33.3c0.9-2.3,2-4.1,3.5-5.2c1.4-1.1,3.2-1.7,5.3-1.7c1.1,0,2.3,0.1,3.4,0.4c1.1,0.3,2.2,0.7,3.3,1.2
				l-2.9,6.9c-0.7-0.5-1.5-0.9-2.3-1.1c-0.8-0.2-1.7-0.3-2.7-0.3c-2.7,0-4.6,1.1-5.8,3.2c-1.2,2.2-1.8,5.8-1.8,10.8V63h-8.1V27.7
				h8.1L408,33.3L408,33.3z"/>
			<path class="st1" d="M443.5,65.2L425,27.7h8.8l7.7,17.8c0.3,0.5,0.5,1.4,0.9,2.5s0.7,2.4,1.1,3.9c0.3-1.1,0.5-2.1,0.9-3.2
				s0.7-2.1,1.2-3.2l7.7-17.8h8.8L443.5,65.2z"/>
			<path class="st1" d="M497.4,46.6h-28.2c0.2,3.3,1.2,5.9,2.9,7.7s4.1,2.8,7,2.8c2.6,0,4.8-0.5,6.5-1.6c1.7-1.1,3.3-2.8,4.5-5.3
				L497,54c-2,3.5-4.5,6.2-7.4,7.9c-2.9,1.7-6.4,2.6-10.3,2.6c-5.7,0-10.2-1.7-13.5-5.2c-3.4-3.5-5-8.1-5-13.8
				c0-5.5,1.7-10.1,5.2-13.6s7.9-5.3,13.4-5.3c5.7,0,10.1,1.6,13.3,4.9s4.8,7.8,4.8,13.7L497.4,46.6L497.4,46.6z M489,41.1
				c-0.3-2.5-1.3-4.5-2.9-5.8c-1.6-1.3-3.8-2-6.6-2c-2.7,0-4.8,0.7-6.4,1.9c-1.6,1.3-2.7,3.2-3.4,5.8L489,41.1L489,41.1z"/>
			<path class="st1" d="M508,79.7h-8.3l9.7-19.7l-13-32.3h8.9l6.5,18.3c0.4,1.1,0.7,2.3,1,3.4c0.3,1.2,0.5,2.3,0.7,3.5
				c0.3-1.2,1.1-3.2,2.3-5.9l0.2-0.5l8.7-18.9h8.8L508,79.7z"/>
		</g>
	</g>
	<g>
		<path class="st2" d="M90.4,72.9H0V36.5C0,16.3,16.3,0,36.5,0h54c20.1,0,36.5,16.3,36.5,36.5l0,0C126.9,56.6,110.6,72.9,90.4,72.9z
			"/>
		<g>
			<g>
				<path class="st3" d="M92.7,31.3c2.8,0,5.1,2.3,5.1,5.1s-2.3,5.1-5.1,5.1s-5.1-2.3-5.1-5.1S89.9,31.3,92.7,31.3 M92.7,27.3
					c-5.1,0-9.1,4.1-9.1,9.1s4.1,9.1,9.1,9.1s9.1-4.1,9.1-9.1S97.8,27.3,92.7,27.3L92.7,27.3z"/>
			</g>
			<circle class="st3" cx="64.9" cy="36.5" r="9.1"/>
			<circle class="st3" cx="37.1" cy="36.5" r="9.1"/>
		</g>
	</g>
</g>
</svg>
